<svg width="24" height="24" viewBox="0 0 24 24" fill="none" xmlns="http://www.w3.org/2000/svg">
<rect width="24" height="24" rx="4.5" fill="#4F46E5"/>
<path d="M10.3149 14.5811C12.6717 14.5811 14.5822 12.6705 14.5822 10.3137C14.5822 10.0466 14.5577 9.78526 14.5107 9.53175C14.2572 9.48481 13.9958 9.46027 13.7287 9.46027C11.372 9.46027 9.46143 11.3708 9.46143 13.7276C9.46143 13.9947 9.48597 14.2561 9.53291 14.5096C9.78642 14.5565 10.0478 14.5811 10.3149 14.5811Z" fill="#6366F1"/>
<path fill-rule="evenodd" clip-rule="evenodd" d="M9.53222 14.5097C7.5489 14.1424 6.04688 12.4035 6.04688 10.3138C6.04688 7.95705 7.95742 6.04651 10.3142 6.04651C12.4039 6.04651 14.1427 7.54854 14.51 9.53186C14.2565 9.48491 13.9952 9.46037 13.7281 9.46037C11.3713 9.46037 9.46073 11.3709 9.46073 13.7277C9.46073 13.9948 9.48527 14.2562 9.53222 14.5097Z" fill="#818CF8"/>
<path fill-rule="evenodd" clip-rule="evenodd" d="M10.3147 14.5811C12.6715 14.5811 14.582 12.6706 14.582 10.3138C14.582 10.0467 14.5575 9.78531 14.5105 9.5318C16.4938 9.8991 17.9959 11.638 17.9959 13.7276C17.9959 16.0844 16.0853 17.995 13.7286 17.995C11.6389 17.995 9.90002 16.4929 9.53271 14.5096C9.78622 14.5566 10.0476 14.5811 10.3147 14.5811Z" fill="#C7D2FE"/>
</svg>
