<svg width="420" height="108" viewBox="0 0 420 108" fill="none" xmlns="http://www.w3.org/2000/svg">
<path d="M160.84 83.6C157.533 83.6 154.413 83.12 151.48 82.16C148.6 81.2 145.96 79.84 143.56 78.08C141.213 76.32 139.187 74.24 137.48 71.84C135.773 69.3867 134.44 66.6667 133.48 63.68C132.573 60.64 132.12 57.4133 132.12 54C132.12 50.5867 132.573 47.36 133.48 44.32C134.44 41.2267 135.773 38.4267 137.48 35.92C139.24 33.36 141.32 31.1733 143.72 29.36C146.12 27.4933 148.76 26.08 151.64 25.12C154.573 24.1067 157.667 23.6 160.92 23.6C163.96 23.6 166.84 24.0267 169.56 24.88C172.333 25.7333 174.813 26.96 177 28.56C179.24 30.1067 181.133 32 182.68 34.24C184.28 36.4267 185.48 38.9067 186.28 41.68L172.68 44.72C171.507 42.0533 169.88 40 167.8 38.56C165.72 37.12 163.347 36.4 160.68 36.4C158.653 36.4 156.76 36.8533 155 37.76C153.293 38.6133 151.8 39.84 150.52 41.44C149.24 42.9867 148.253 44.8267 147.56 46.96C146.867 49.04 146.52 51.3333 146.52 53.84C146.52 56.2933 146.867 58.56 147.56 60.64C148.253 62.72 149.24 64.5333 150.52 66.08C151.8 67.5733 153.32 68.7467 155.08 69.6C156.84 70.4 158.76 70.8 160.84 70.8C163.613 70.8 166.04 70.1067 168.12 68.72C170.253 67.28 171.96 65.2 173.24 62.48L186.84 65.52C185.773 69.2533 183.987 72.48 181.48 75.2C179.027 77.8667 176.04 79.9467 172.52 81.44C169 82.88 165.107 83.6 160.84 83.6ZM206.429 83.2C204.295 83.2 202.322 82.8533 200.509 82.16C198.695 81.52 197.122 80.6133 195.789 79.44C194.455 78.2667 193.415 76.88 192.669 75.28C191.922 73.6267 191.549 71.84 191.549 69.92C191.549 67.2 192.269 64.8 193.709 62.72C195.202 60.64 197.255 59.04 199.869 57.92C202.535 56.7467 205.629 56.16 209.149 56.16C210.855 56.16 212.402 56.2933 213.789 56.56C215.175 56.8267 216.589 57.2533 218.029 57.84V55.68C218.029 53.6 217.415 51.9467 216.189 50.72C215.015 49.44 213.415 48.8 211.389 48.8C209.895 48.8 208.535 49.1733 207.309 49.92C206.082 50.6133 205.229 51.5733 204.749 52.8L193.069 50.8C193.495 48.9333 194.269 47.2267 195.389 45.68C196.509 44.1333 197.895 42.8 199.549 41.68C201.255 40.56 203.122 39.7067 205.149 39.12C207.175 38.48 209.335 38.16 211.629 38.16C214.455 38.16 217.015 38.6133 219.309 39.52C221.655 40.3733 223.682 41.6267 225.389 43.28C227.095 44.88 228.402 46.8 229.309 49.04C230.215 51.2267 230.669 53.6533 230.669 56.32V82H218.989L218.669 76.96C217.602 78.8267 216.002 80.3467 213.869 81.52C211.735 82.64 209.255 83.2 206.429 83.2ZM204.349 69.12C204.349 70.4 204.855 71.4667 205.869 72.32C206.935 73.12 208.322 73.52 210.029 73.52C211.575 73.52 212.935 73.2 214.109 72.56C215.335 71.92 216.295 71.04 216.989 69.92C217.682 68.8 218.029 67.5467 218.029 66.16V65.76C217.069 65.3333 216.029 65.0133 214.909 64.8C213.789 64.5333 212.669 64.4 211.549 64.4C209.309 64.4 207.549 64.8267 206.269 65.68C204.989 66.5333 204.349 67.68 204.349 69.12ZM255.021 83.2C251.928 83.2 249.101 82.72 246.541 81.76C243.981 80.8 241.821 79.44 240.061 77.68C238.355 75.92 237.128 73.84 236.381 71.44L248.381 69.28C248.861 70.5067 249.688 71.4933 250.861 72.24C252.088 72.9867 253.501 73.36 255.101 73.36C256.755 73.36 258.035 73.04 258.941 72.4C259.901 71.7067 260.381 70.8267 260.381 69.76C260.381 68.7467 259.875 67.9467 258.861 67.36C257.901 66.7733 256.221 66.2933 253.821 65.92L251.901 65.6C247.261 64.8 243.688 63.28 241.181 61.04C238.728 58.7467 237.501 55.84 237.501 52.32C237.501 50.24 237.901 48.3467 238.701 46.64C239.555 44.88 240.755 43.3867 242.301 42.16C243.848 40.88 245.661 39.8933 247.741 39.2C249.875 38.5067 252.195 38.16 254.701 38.16C257.635 38.16 260.301 38.64 262.701 39.6C265.155 40.5067 267.208 41.8133 268.861 43.52C270.515 45.2267 271.661 47.2533 272.301 49.6L260.381 51.76C259.901 50.5867 259.155 49.68 258.141 49.04C257.181 48.3467 256.035 48 254.701 48C253.208 48 252.035 48.32 251.181 48.96C250.381 49.5467 249.981 50.3467 249.981 51.36C249.981 52.2667 250.435 52.9867 251.341 53.52C252.248 54.0533 253.928 54.5333 256.381 54.96L258.301 55.28C263.048 56.08 266.675 57.6267 269.181 59.92C271.688 62.16 272.941 65.04 272.941 68.56C272.941 70.6933 272.488 72.6667 271.581 74.48C270.728 76.2933 269.501 77.84 267.901 79.12C266.355 80.4 264.461 81.3867 262.221 82.08C260.035 82.8267 257.635 83.2 255.021 83.2ZM279.252 97.28V39.36H291.252L291.652 45.44C293.092 43.2 294.985 41.44 297.332 40.16C299.679 38.8267 302.265 38.16 305.092 38.16C307.812 38.16 310.319 38.7467 312.612 39.92C314.959 41.04 316.985 42.6133 318.692 44.64C320.452 46.6133 321.812 48.96 322.772 51.68C323.785 54.4 324.292 57.3067 324.292 60.4C324.292 63.6 323.785 66.5867 322.772 69.36C321.759 72.1333 320.345 74.56 318.532 76.64C316.719 78.72 314.585 80.3467 312.132 81.52C309.679 82.64 307.039 83.2 304.212 83.2C301.705 83.2 299.439 82.72 297.412 81.76C295.385 80.8 293.679 79.4133 292.292 77.6V97.28H279.252ZM301.572 71.44C303.385 71.44 304.985 70.9867 306.372 70.08C307.812 69.12 308.932 67.84 309.732 66.24C310.585 64.5867 311.012 62.7467 311.012 60.72C311.012 58.64 310.585 56.8 309.732 55.2C308.932 53.5467 307.812 52.2667 306.372 51.36C304.985 50.4 303.385 49.92 301.572 49.92C299.759 49.92 298.132 50.4 296.692 51.36C295.305 52.2667 294.185 53.5467 293.332 55.2C292.532 56.8 292.132 58.64 292.132 60.72C292.132 62.7467 292.532 64.5867 293.332 66.24C294.185 67.84 295.305 69.12 296.692 70.08C298.132 70.9867 299.759 71.44 301.572 71.44ZM351.919 83.2C348.719 83.2 345.786 82.6667 343.119 81.6C340.453 80.48 338.133 78.9067 336.159 76.88C334.186 74.8533 332.666 72.4533 331.599 69.68C330.533 66.9067 329.999 63.8667 329.999 60.56C329.999 57.36 330.533 54.4 331.599 51.68C332.719 48.96 334.239 46.5867 336.159 44.56C338.133 42.5333 340.426 40.96 343.039 39.84C345.653 38.72 348.479 38.16 351.519 38.16C354.719 38.16 357.626 38.72 360.239 39.84C362.853 40.9067 365.093 42.4533 366.959 44.48C368.826 46.5067 370.266 48.9333 371.279 51.76C372.293 54.5867 372.799 57.7333 372.799 61.2V64.08H343.359C343.893 66.6933 344.906 68.72 346.399 70.16C347.893 71.5467 349.786 72.24 352.079 72.24C353.786 72.24 355.279 71.8933 356.559 71.2C357.893 70.5067 359.066 69.4667 360.079 68.08L371.999 71.2C370.986 73.6533 369.466 75.7867 367.439 77.6C365.466 79.36 363.146 80.7467 360.479 81.76C357.813 82.72 354.959 83.2 351.919 83.2ZM351.519 47.92C349.386 47.92 347.599 48.6133 346.159 50C344.773 51.3333 343.839 53.2533 343.359 55.76H359.359C358.933 53.2533 358.026 51.3333 356.639 50C355.306 48.6133 353.599 47.92 351.519 47.92ZM379.096 82V39.36H391.096L391.496 44.96C392.722 42.88 394.402 41.2267 396.536 40C398.669 38.7733 401.122 38.16 403.896 38.16C406.936 38.16 409.576 38.9067 411.816 40.4C414.109 41.8933 415.869 44 417.096 46.72C418.376 49.3867 419.016 52.56 419.016 56.24V82H405.976V58.08C405.976 55.5733 405.389 53.6 404.216 52.16C403.096 50.6667 401.522 49.92 399.496 49.92C398.056 49.92 396.776 50.2667 395.656 50.96C394.589 51.6533 393.736 52.6133 393.096 53.84C392.456 55.0133 392.136 56.3467 392.136 57.84V82H379.096Z" fill="#EEF2FF"/>
<rect width="107.52" height="107.52" rx="30.72" fill="#4F46E5"/>
<path d="M45.0286 66.4565C56.8633 66.4565 66.4572 56.8626 66.4572 45.0279C66.4572 43.6866 66.334 42.3742 66.0982 41.1012C64.8252 40.8654 63.5128 40.7422 62.1715 40.7422C50.3368 40.7422 40.7429 50.3361 40.7429 62.1708C40.7429 63.512 40.8661 64.8245 41.1019 66.0975C42.3749 66.3332 43.6874 66.4565 45.0286 66.4565Z" fill="#6366F1"/>
<path fill-rule="evenodd" clip-rule="evenodd" d="M41.1019 66.0997C31.1426 64.2553 23.6001 55.5235 23.6001 45.0301C23.6001 33.1955 33.194 23.6016 45.0287 23.6016C55.5221 23.6016 64.2538 31.1441 66.0983 41.1034C64.8253 40.8676 63.5128 40.7444 62.1715 40.7444C50.3369 40.7444 40.743 50.3383 40.743 62.173C40.743 63.5143 40.8662 64.8267 41.1019 66.0997Z" fill="#818CF8"/>
<path fill-rule="evenodd" clip-rule="evenodd" d="M45.0285 66.4569C56.8632 66.4569 66.4571 56.863 66.4571 45.0283C66.4571 43.687 66.3339 42.3746 66.0981 41.1016C76.0575 42.946 83.6 51.6777 83.6 62.1712C83.6 74.0058 74.0061 83.5997 62.1714 83.5997C51.678 83.5997 42.9462 76.0572 41.1018 66.0979C42.3748 66.3336 43.6873 66.4569 45.0285 66.4569Z" fill="#C7D2FE"/>
</svg>
